<svg width="88" height="40" viewBox="0 0 88 40" fill="none" xmlns="http://www.w3.org/2000/svg">
<path d="M12.4324 12.7027L9.72973 10L7.02703 12.7027L9.18919 14.8649V18.9652L4.02498 13.801C4.21518 13.4791 4.32432 13.1037 4.32432 12.7027C4.32432 11.5086 3.35629 10.5405 2.16216 10.5405C0.968033 10.5405 0 11.5086 0 12.7027C0 13.8968 0.968033 14.8649 2.16216 14.8649C2.56315 14.8649 2.93865 14.7557 3.26055 14.5655L8.4248 19.7297H4.25621C4.01618 18.7972 3.16964 18.1081 2.16216 18.1081C0.968033 18.1081 0 19.0761 0 20.2703C0 21.4644 0.968033 22.4324 2.16216 22.4324C3.16964 22.4324 4.01618 21.7434 4.25621 20.8108H8.4247L3.26049 25.975C2.9386 25.7848 2.56313 25.6757 2.16216 25.6757C0.968033 25.6757 0 26.6437 0 27.8378C0 29.032 0.968033 30 2.16216 30C3.35629 30 4.32432 29.032 4.32432 27.8378C4.32432 27.4368 4.21517 27.0614 4.02494 26.7394L9.18919 21.5752V25.7438C8.25663 25.9838 7.56757 26.8304 7.56757 27.8378C7.56757 29.032 8.5356 30 9.72973 30C10.9239 30 11.8919 29.032 11.8919 27.8378C11.8919 26.8304 11.2028 25.9838 10.2703 25.7438V21.5752L15.4054 26.7103V29.7297H19.1892V25.9459H16.1699L11.0348 20.8108H15.1351L17.2973 22.973L20 20.2703L17.2973 17.5676L15.1351 19.7297H11.0347L16.1698 14.5946H19.1892V10.8108H15.4054V13.8301L10.2703 18.9652V14.8649L12.4324 12.7027Z" fill="white"/>
<path d="M38.8159 19.8442H33.1099L35.7919 21.4282V24.3802C35.3059 24.5062 34.8559 24.5602 34.4779 24.5602C32.0479 24.5602 30.3379 22.4542 30.3379 19.1962C30.3379 15.9382 32.0659 14.2282 34.5679 14.2282C35.0359 14.2282 35.6299 14.2822 36.2959 14.5162L38.3299 17.7202V13.2202L37.3399 13.7242C36.2959 13.3822 35.0539 13.2202 34.0279 13.2202C30.2119 13.2202 26.6299 15.4342 26.6299 19.8442C26.6299 23.9122 29.6539 26.1802 33.7399 26.1802C35.0179 26.1802 36.4759 25.9462 37.6459 25.3882L38.8159 26.1082V19.8442Z" fill="white"/>
<path d="M52.2333 22.3102C50.8653 23.4442 49.4793 23.7682 48.3993 23.7682C46.0053 23.7682 44.2953 22.1482 44.2953 19.0522C44.2953 15.9382 45.9693 14.2282 48.2373 14.2282C48.6153 14.2282 49.0473 14.2822 49.5153 14.4082L51.8373 18.0622V15.5242C51.8373 15.5422 51.8553 15.5422 51.8553 15.5422V13.3282L50.9013 13.7242C49.9293 13.3822 48.8313 13.2202 47.8773 13.2202C44.1153 13.2202 40.5693 15.6322 40.5693 19.8622C40.5693 23.6782 43.5933 26.1802 46.9593 26.1802C49.2273 26.1802 51.2793 25.0822 52.3233 22.4002L52.2333 22.3102Z" fill="white"/>
<path d="M63.0332 21.1042C66.1112 21.1042 68.3972 19.5382 68.3972 17.0002C68.3972 14.4622 66.1112 13.4002 63.0332 13.4002H57.0212L57.9752 14.4802V24.9202L57.0212 26.0002H63.0692L61.5032 24.5962V21.1042H63.0332ZM61.5032 14.4082H62.5292C63.9512 14.4082 64.9052 15.3262 64.9052 17.2162C64.9052 19.1062 63.9512 20.0962 62.5292 20.0962H61.5032V14.4082Z" fill="white"/>
<path d="M75.4573 20.1682L76.5733 16.8202C74.5213 16.3522 73.1893 17.6302 72.5953 19.6822L72.5053 19.6462L72.9733 16.5322L68.7433 18.3862L69.6253 19.4122V24.9202L68.6713 26.0002H74.5393L72.9733 24.5962V20.3482C73.5133 19.6822 74.5753 19.7902 75.4573 20.1682Z" fill="white"/>
<path d="M82.1036 26.1802C84.6776 26.1802 87.3236 24.6862 87.3236 21.4102C87.3236 18.1342 84.6776 16.6402 82.1036 16.6402C79.5296 16.6402 76.8836 18.1342 76.8836 21.4102C76.8836 24.6862 79.5296 26.1802 82.1036 26.1802ZM82.2656 25.3522C81.0956 25.3522 80.4476 23.6422 80.4476 21.0322C80.4476 18.9442 80.7896 17.4682 81.9416 17.4682C83.1116 17.4682 83.7416 19.1782 83.7416 21.7882C83.7416 23.8762 83.4176 25.3522 82.2656 25.3522Z" fill="white"/>
</svg>
