<svg width="90" height="40" viewBox="0 0 90 40" fill="none" xmlns="http://www.w3.org/2000/svg">
<path d="M9.5 14.5L7.5 12.5L10 10L12.5 12.5L10.5 14.5V18.7929L15.1464 14.1465L15.8535 14.8536L11.2071 19.5H15.5L17.5 17.5L20 20L17.5 22.5L15.5 20.5H11.2071L15.8535 25.1464L15.1464 25.8535L10.5 21.2071V26.063C11.3626 26.285 12 27.0681 12 28C12 29.1046 11.1046 30 10 30C8.89543 30 8 29.1046 8 28C8 27.0681 8.63739 26.285 9.5 26.063V21.2071L4.85355 25.8536L4.14645 25.1464L8.79289 20.5H3.93699C3.71497 21.3626 2.93192 22 2 22C0.895431 22 0 21.1046 0 20C0 18.8954 0.895431 18 2 18C2.93192 18 3.71497 18.6374 3.93699 19.5H8.79289L4.14645 14.8536L4.85355 14.1464L9.5 18.7929V14.5Z" fill="white"/>
<path d="M33.0379 13.2742C29.4019 13.2742 26.6299 15.9382 26.6299 19.7002C26.6299 23.4622 29.4019 26.1082 33.0559 26.1082C36.4039 26.1082 38.6899 23.7682 39.1939 21.2122V19.0162H32.3899V20.9422H36.7099C36.3319 22.7242 35.0899 23.8402 33.1459 23.8402C30.8059 23.8402 29.2219 22.2562 29.2219 19.7002C29.2219 17.1982 30.7879 15.5962 33.0379 15.5962C34.3699 15.5962 35.4139 16.1542 35.9899 17.2162H38.8879C38.0779 14.6962 35.8459 13.2742 33.0379 13.2742Z" fill="white"/>
<path d="M40.4463 19.7002C40.4463 23.4622 43.2003 26.1082 46.8183 26.1082C49.6083 26.1082 51.8763 24.6322 52.7223 22.0402H49.8243C49.2303 23.2642 48.1503 23.8582 46.8003 23.8582C44.6043 23.8582 43.0383 22.2382 43.0383 19.7002C43.0383 17.1442 44.6043 15.5422 46.8003 15.5422C48.1503 15.5422 49.2303 16.1362 49.8243 17.3422H52.7223C51.8763 14.7682 49.6083 13.2742 46.8183 13.2742C43.2003 13.2742 40.4463 15.9382 40.4463 19.7002Z" fill="white"/>
<path d="M59.1638 13.4362V26.0002H65.8238V24.0022H61.6838V13.4362H59.1638Z" fill="white"/>
<path d="M67.4255 26.0002H69.9455V16.0282H67.4255V26.0002ZM68.7035 14.8402C69.5855 14.8402 70.2515 14.1922 70.2515 13.3642C70.2515 12.5362 69.5855 11.8882 68.7035 11.8882C67.8035 11.8882 67.1555 12.5362 67.1555 13.3642C67.1555 14.1922 67.8035 14.8402 68.7035 14.8402Z" fill="white"/>
<path d="M72.8312 22.9042C72.8312 25.1902 74.1092 26.0002 76.0172 26.0002H77.6012V23.8762H76.4312C75.6392 23.8762 75.3692 23.5882 75.3692 22.9222V18.0982H77.6012V16.0282H75.3692V13.5622H72.8312V16.0282H71.6432V18.0982H72.8312V22.9042Z" fill="white"/>
<path d="M83.6978 17.9362C84.9938 17.9362 86.0378 18.7642 86.0738 20.0782H81.3398C81.5378 18.7102 82.4918 17.9362 83.6978 17.9362ZM88.4318 22.8682H85.7138C85.3898 23.5342 84.7958 24.0742 83.7158 24.0742C82.4558 24.0742 81.4478 23.2462 81.3218 21.7702H88.6118C88.6658 21.4462 88.6838 21.1222 88.6838 20.7982C88.6838 17.8282 86.6498 15.8662 83.7698 15.8662C80.8178 15.8662 78.7658 17.8642 78.7658 21.0142C78.7658 24.1462 80.8718 26.1622 83.7698 26.1622C86.2358 26.1622 87.8918 24.7042 88.4318 22.8682Z" fill="white"/>
</svg>
