<svg width="40" height="40" viewBox="0 0 40 40" fill="none" xmlns="http://www.w3.org/2000/svg">
<path d="M24.8649 5.40541L19.4595 0L14.0541 5.40541L18.3784 9.72973V17.9305L8.04996 7.60206C8.43036 6.95828 8.64865 6.20733 8.64865 5.40541C8.64865 3.01715 6.71258 1.08108 4.32432 1.08108C1.93607 1.08108 0 3.01715 0 5.40541C0 7.79366 1.93607 9.72973 4.32432 9.72973C5.12631 9.72973 5.8773 9.51141 6.52111 9.13097L16.8496 19.4595H8.51241C8.03237 17.5943 6.33929 16.2162 4.32432 16.2162C1.93607 16.2162 0 18.1523 0 20.5405C0 22.9288 1.93607 24.8649 4.32432 24.8649C6.33929 24.8649 8.03237 23.4867 8.51241 21.6216H16.8494L6.52098 31.95C5.8772 31.5696 5.12625 31.3514 4.32432 31.3514C1.93607 31.3514 0 33.2874 0 35.6757C0 38.0639 1.93607 40 4.32432 40C6.71258 40 8.64865 38.0639 8.64865 35.6757C8.64865 34.8737 8.43033 34.1227 8.04989 33.4789L18.3784 23.1504V31.4876C16.5133 31.9676 15.1351 33.6607 15.1351 35.6757C15.1351 38.0639 17.0712 40 19.4595 40C21.8477 40 23.7838 38.0639 23.7838 35.6757C23.7838 33.6607 22.4057 31.9676 20.5405 31.4876V23.1504L30.8108 33.4207V39.4595H38.3784V31.8919H32.3398L22.0695 21.6216H30.2703L34.5946 25.9459L40 20.5405L34.5946 15.1351L30.2703 19.4595H22.0693L32.3396 9.18919H38.3784V1.62162H30.8108V7.66021L20.5405 17.9305V9.72973L24.8649 5.40541Z" fill="white"/>
</svg>
