<svg width="133" height="64" viewBox="0 0 133 64" fill="none" xmlns="http://www.w3.org/2000/svg">
<path d="M14.25 23.75L11.25 20.75L15 17L18.75 20.75L15.75 23.75V30.1893L22.7197 23.2197L23.7803 24.2803L16.8107 31.25H23.25L26.25 28.25L30 32L26.25 35.75L23.25 32.75H16.8107L23.7803 39.7197L22.7197 40.7803L15.75 33.8107V41.0945C17.0439 41.4275 18 42.6021 18 44C18 45.6569 16.6569 47 15 47C13.3431 47 12 45.6569 12 44C12 42.6021 12.9561 41.4275 14.25 41.0945V33.8107L7.28033 40.7803L6.21967 39.7197L13.1893 32.75H5.90549C5.57245 34.0439 4.39788 35 3 35C1.34315 35 0 33.6569 0 32C0 30.3431 1.34315 29 3 29C4.39788 29 5.57245 29.9561 5.90549 31.25H13.1893L6.21967 24.2803L7.28033 23.2197L14.25 30.1893V23.75Z" fill="white"/>
<path d="M48.557 21.911C43.103 21.911 38.945 25.907 38.945 31.55C38.945 37.193 43.103 41.162 48.584 41.162C53.606 41.162 57.035 37.652 57.791 33.818V30.524H47.585V33.413H54.065C53.498 36.086 51.635 37.76 48.719 37.76C45.209 37.76 42.833 35.384 42.833 31.55C42.833 27.797 45.182 25.394 48.557 25.394C50.555 25.394 52.121 26.231 52.985 27.824H57.332C56.117 24.044 52.769 21.911 48.557 21.911Z" fill="white"/>
<path d="M59.6696 31.55C59.6696 37.193 63.8006 41.162 69.2276 41.162C73.4126 41.162 76.8146 38.948 78.0836 35.06H73.7366C72.8456 36.896 71.2256 37.787 69.2006 37.787C65.9066 37.787 63.5576 35.357 63.5576 31.55C63.5576 27.716 65.9066 25.313 69.2006 25.313C71.2256 25.313 72.8456 26.204 73.7366 28.013H78.0836C76.8146 24.152 73.4126 21.911 69.2276 21.911C63.8006 21.911 59.6696 25.907 59.6696 31.55Z" fill="white"/>
<path d="M87.7458 22.154V41H97.7358V38.003H91.5258V22.154H87.7458Z" fill="white"/>
<path d="M100.138 41H103.918V26.042H100.138V41ZM102.055 24.26C103.378 24.26 104.377 23.288 104.377 22.046C104.377 20.804 103.378 19.832 102.055 19.832C100.705 19.832 99.7334 20.804 99.7334 22.046C99.7334 23.288 100.705 24.26 102.055 24.26Z" fill="white"/>
<path d="M108.247 36.356C108.247 39.785 110.164 41 113.026 41H115.402V37.814H113.647C112.459 37.814 112.054 37.382 112.054 36.383V29.147H115.402V26.042H112.054V22.343H108.247V26.042H106.465V29.147H108.247V36.356Z" fill="white"/>
<path d="M124.547 28.904C126.491 28.904 128.057 30.146 128.111 32.117H121.01C121.307 30.065 122.738 28.904 124.547 28.904ZM131.648 36.302H127.571C127.085 37.301 126.194 38.111 124.574 38.111C122.684 38.111 121.172 36.869 120.983 34.655H131.918C131.999 34.169 132.026 33.683 132.026 33.197C132.026 28.742 128.975 25.799 124.655 25.799C120.227 25.799 117.149 28.796 117.149 33.521C117.149 38.219 120.308 41.243 124.655 41.243C128.354 41.243 130.838 39.056 131.648 36.302Z" fill="white"/>
</svg>
