<svg width="132" height="64" viewBox="0 0 132 64" fill="none" xmlns="http://www.w3.org/2000/svg">
<path d="M18.6486 21.0541L14.5946 17L10.5405 21.0541L13.7838 24.2973V30.4479L6.03747 22.7015C6.32277 22.2187 6.48649 21.6555 6.48649 21.0541C6.48649 19.2629 5.03444 17.8108 3.24324 17.8108C1.45205 17.8108 0 19.2629 0 21.0541C0 22.8452 1.45205 24.2973 3.24324 24.2973C3.84473 24.2973 4.40797 24.1336 4.89083 23.8482L12.6372 31.5946H6.38431C6.02428 30.1958 4.75446 29.1622 3.24324 29.1622C1.45205 29.1622 0 30.6142 0 32.4054C0 34.1966 1.45205 35.6486 3.24324 35.6486C4.75446 35.6486 6.02428 34.615 6.38431 33.2162H12.637L4.89074 40.9625C4.4079 40.6772 3.84469 40.5135 3.24324 40.5135C1.45205 40.5135 0 41.9656 0 43.7568C0 45.548 1.45205 47 3.24324 47C5.03444 47 6.48649 45.548 6.48649 43.7568C6.48649 43.1553 6.32275 42.592 6.03742 42.1092L13.7838 34.3628V40.6157C12.385 40.9757 11.3514 42.2455 11.3514 43.7568C11.3514 45.548 12.8034 47 14.5946 47C16.3858 47 17.8378 45.548 17.8378 43.7568C17.8378 42.2455 16.8042 40.9757 15.4054 40.6157V34.3628L23.1081 42.0655V46.5946H28.7838V40.9189H24.2548L16.5521 33.2162H22.7027L25.9459 36.4595L30 32.4054L25.9459 28.3514L22.7027 31.5946H16.552L24.2547 23.8919H28.7838V18.2162H23.1081V22.7452L15.4054 30.4479V24.2973L18.6486 21.0541Z" fill="white"/>
<path d="M48.8 30.173V33.737H52.742C52.391 35.735 51.014 36.896 48.881 36.896C46.235 36.896 44.669 34.709 44.669 31.01C44.669 27.311 46.235 25.124 48.881 25.124C50.987 25.124 52.391 26.501 52.661 28.796H58.034C57.602 23.747 54.2 20.75 48.881 20.75C42.563 20.75 38.837 24.557 38.837 31.01C38.837 37.463 41.564 41.27 46.181 41.27C50.366 41.27 52.85 38.57 52.85 34.034H52.904V41H58.196V30.173H48.8Z" fill="white"/>
<path d="M78.4194 32.9H73.0464C72.7224 35.411 71.3184 36.896 69.1044 36.896C66.4854 36.896 64.9194 34.709 64.9194 31.01C64.9194 27.311 66.4854 25.124 69.1044 25.124C71.2374 25.124 72.7224 26.636 73.0464 29.147H78.4194C77.9064 23.882 74.4504 20.75 69.1044 20.75C62.8134 20.75 59.0874 24.557 59.0874 31.01C59.0874 37.463 62.8134 41.27 69.1044 41.27C74.4504 41.27 77.9064 38.138 78.4194 32.9Z" fill="white"/>
<path d="M100.722 27.075C100.722 23.975 97.797 21 93.272 21H83.922L86.022 23.775V38.225L83.922 41H93.172L91.047 38.225V33.3L93.372 32.975C98.372 32.275 100.722 29.9 100.722 27.075ZM95.847 29.025C95.847 29.8 95.647 30.575 95.222 31.3L91.047 29.575V23.575C93.697 24 95.847 26.475 95.847 29.025Z" fill="white"/>
<path d="M115.771 30.275C114.996 28.675 113.896 27.5 112.171 27.025L108.096 29.45L106.621 27L102.046 29.725L103.571 31.25V38.225L101.471 41H110.721L108.596 38.225V30.55C109.946 30.55 110.821 31.45 111.471 32.825L115.771 30.275Z" fill="white"/>
<path d="M130.578 34.325C130.578 30.45 127.528 27.325 123.603 27.325C119.703 27.325 116.653 30.45 116.653 34.325C116.653 38.2 119.703 41.325 123.603 41.325C127.528 41.325 130.578 38.2 130.578 34.325ZM126.828 37.5C126.828 38.025 126.753 38.6 126.628 39.15C123.153 37.9 120.328 34.825 120.328 31.175C120.328 30.625 120.403 30.05 120.528 29.5C123.978 30.75 126.828 33.85 126.828 37.5Z" fill="white"/>
</svg>
