<svg width="93" height="22" viewBox="0 0 93 22" fill="none" xmlns="http://www.w3.org/2000/svg">
<path d="M10.8 10.173V13.737H14.742C14.391 15.735 13.014 16.896 10.881 16.896C8.23501 16.896 6.66901 14.709 6.66901 11.01C6.66901 7.311 8.23501 5.124 10.881 5.124C12.987 5.124 14.391 6.501 14.661 8.796H20.034C19.602 3.747 16.2 0.75 10.881 0.75C4.56301 0.75 0.837006 4.557 0.837006 11.01C0.837006 17.463 3.56401 21.27 8.18101 21.27C12.366 21.27 14.85 18.57 14.85 14.034H14.904V21H20.196V10.173H10.8Z" fill="white"/>
<path d="M40.4194 12.9H35.0464C34.7224 15.411 33.3184 16.896 31.1044 16.896C28.4854 16.896 26.9194 14.709 26.9194 11.01C26.9194 7.311 28.4854 5.124 31.1044 5.124C33.2374 5.124 34.7224 6.636 35.0464 9.147H40.4194C39.9064 3.882 36.4504 0.75 31.1044 0.75C24.8134 0.75 21.0874 4.557 21.0874 11.01C21.0874 17.463 24.8134 21.27 31.1044 21.27C36.4504 21.27 39.9064 18.138 40.4194 12.9Z" fill="white"/>
<path d="M62.722 7.075C62.722 3.975 59.797 1 55.272 1H45.922L48.022 3.775V18.225L45.922 21H55.172L53.047 18.225V13.3L55.372 12.975C60.372 12.275 62.722 9.9 62.722 7.075ZM57.847 9.025C57.847 9.8 57.647 10.575 57.222 11.3L53.047 9.575V3.575C55.697 4 57.847 6.475 57.847 9.025Z" fill="white"/>
<path d="M77.7709 10.275C76.9959 8.675 75.8959 7.5 74.1709 7.025L70.0959 9.45L68.6209 7L64.0459 9.725L65.5709 11.25V18.225L63.4709 21H72.7209L70.5959 18.225V10.55C71.9459 10.55 72.8209 11.45 73.4709 12.825L77.7709 10.275Z" fill="white"/>
<path d="M92.5785 14.325C92.5785 10.45 89.5285 7.325 85.6035 7.325C81.7035 7.325 78.6535 10.45 78.6535 14.325C78.6535 18.2 81.7035 21.325 85.6035 21.325C89.5285 21.325 92.5785 18.2 92.5785 14.325ZM88.8285 17.5C88.8285 18.025 88.7535 18.6 88.6285 19.15C85.1535 17.9 82.3285 14.825 82.3285 11.175C82.3285 10.625 82.4035 10.05 82.5285 9.5C85.9785 10.75 88.8285 13.85 88.8285 17.5Z" fill="white"/>
</svg>
